<svg width="34" height="34" viewBox="0 0 34 34" fill="none" xmlns="http://www.w3.org/2000/svg">
<path d="M16.9995 0C7.42455 0 0 7.01656 0 16.4895C0 21.4449 2.03145 25.7288 5.33786 28.6867C5.6141 28.9332 5.78409 29.2817 5.79259 29.6557L5.88609 32.6816C5.8929 32.9042 5.95429 33.1218 6.06487 33.3152C6.17545 33.5085 6.33183 33.6718 6.52027 33.7905C6.70871 33.9093 6.92344 33.98 7.14558 33.9963C7.36773 34.0127 7.59049 33.9742 7.79429 33.8843L11.1687 32.3969C11.4534 32.2694 11.7764 32.2481 12.0782 32.3289C13.6294 32.7539 15.2783 32.9833 16.9995 32.9833C26.5745 32.9833 33.9991 25.9668 33.9991 16.4938C33.9991 7.02081 26.5745 0 16.9995 0Z" fill="url(#paint0_radial_1959_35791)"/>
<path d="M6.79132 21.3132L11.7849 13.3914C11.9728 13.0931 12.2204 12.8371 12.5122 12.6394C12.804 12.4416 13.1337 12.3066 13.4803 12.2427C13.8269 12.1788 14.1831 12.1874 14.5262 12.2681C14.8693 12.3488 15.192 12.4997 15.4738 12.7114L19.4475 15.6906C19.6249 15.8234 19.8407 15.8948 20.0623 15.894C20.2839 15.8933 20.4992 15.8204 20.6757 15.6863L26.039 11.6149C26.753 11.0709 27.688 11.9294 27.212 12.6902L22.2142 20.6077C22.0263 20.9059 21.7787 21.162 21.4868 21.3597C21.195 21.5574 20.8654 21.6925 20.5188 21.7564C20.1721 21.8203 19.816 21.8116 19.4729 21.731C19.1298 21.6503 18.8071 21.4993 18.5252 21.2877L14.5516 18.3085C14.3742 18.1757 14.1584 18.1043 13.9368 18.105C13.7152 18.1058 13.4999 18.1787 13.3234 18.3127L7.96004 22.3841C7.24606 22.9281 6.31108 22.0739 6.79132 21.3132Z" fill="white"/>
<defs>
<radialGradient id="paint0_radial_1959_35791" cx="0" cy="0" r="1" gradientUnits="userSpaceOnUse" gradientTransform="translate(5.69485 33.9991) scale(37.399 37.399)">
<stop stop-color="#0099FF"/>
<stop offset="0.6" stop-color="#A033FF"/>
<stop offset="0.9" stop-color="#FF5280"/>
<stop offset="1" stop-color="#FF7061"/>
</radialGradient>
</defs>
</svg>
