<svg width="34" height="34" viewBox="0 0 34 34" fill="none" xmlns="http://www.w3.org/2000/svg">
<g clip-path="url(#clip0_1949_55250)">
<path d="M17 34C26.3888 34 34 26.3888 34 17C34 7.61118 26.3888 0 17 0C7.61118 0 0 7.61118 0 17C0 26.3888 7.61118 34 17 34Z" fill="url(#paint0_linear_1949_55250)"/>
<path d="M6.33138 17.8317C8.31868 16.737 10.537 15.8234 12.6098 14.9051C16.1757 13.4011 19.7558 11.923 23.372 10.547C24.0756 10.3126 25.3397 10.0833 25.4637 11.126C25.3958 12.6018 25.1166 14.0691 24.9251 15.5363C24.4389 18.7629 23.8771 21.9785 23.3292 25.1944C23.1404 26.2657 21.7985 26.8202 20.9398 26.1347C18.8763 24.7408 16.7969 23.3606 14.7597 21.9344C14.0924 21.2563 14.7112 20.2826 15.3072 19.7984C17.0068 18.1234 18.8092 16.7004 20.42 14.9389C20.8545 13.8897 19.5707 14.7739 19.1472 15.0449C16.8205 16.6483 14.5507 18.3495 12.0976 19.7587C10.8445 20.4485 9.38409 19.859 8.13161 19.4741C7.00859 19.0091 5.36308 18.5406 6.33138 17.8317Z" fill="white"/>
</g>
<defs>
<linearGradient id="paint0_linear_1949_55250" x1="12.752" y1="1.4178" x2="4.25198" y2="21.25" gradientUnits="userSpaceOnUse">
<stop stop-color="#37AEE2"/>
<stop offset="1" stop-color="#1E96C8"/>
</linearGradient>
<clipPath id="clip0_1949_55250">
<rect width="34" height="34" fill="white"/>
</clipPath>
</defs>
</svg>
