<svg width="34" height="34" viewBox="0 0 34 34" fill="none" xmlns="http://www.w3.org/2000/svg">
<g clip-path="url(#clip0_1953_35814)">
<path d="M0 17C0 7.61118 7.61118 0 17 0C26.3888 0 34 7.61118 34 17C34 26.3888 26.3888 34 17 34C7.61118 34 0 26.3888 0 17Z" fill="black"/>
<path fill-rule="evenodd" clip-rule="evenodd" d="M14.8815 14.8753V14.0952C14.6108 14.0569 14.3378 14.0369 14.0643 14.0356C10.7205 14.0356 8 16.7566 8 20.1005C8 22.1517 9.02515 23.9674 10.589 25.0655C9.54187 23.9456 8.95972 22.4695 8.96057 20.9364C8.96057 17.6402 11.6036 14.9522 14.8815 14.8753Z" fill="#00F2EA"/>
<path fill-rule="evenodd" clip-rule="evenodd" d="M15.0243 23.7057C16.5162 23.7057 17.7333 22.5188 17.7887 21.0397L17.7937 7.83597H20.2059C20.1544 7.56029 20.1284 7.28045 20.128 7H16.8337L16.8282 20.2042C16.7732 21.6829 15.5556 22.8693 14.0642 22.8693C13.6164 22.8694 13.1753 22.7603 12.7793 22.5514C13.035 22.9081 13.372 23.1989 13.7624 23.3996C14.1528 23.6004 14.5853 23.7053 15.0243 23.7057ZM24.7119 12.3177V11.5839C23.8254 11.5847 22.958 11.3268 22.2159 10.8418C22.8665 11.5909 23.7425 12.1087 24.7124 12.3177" fill="#00F2EA"/>
<path fill-rule="evenodd" clip-rule="evenodd" d="M22.2161 10.8413C21.4889 10.0093 21.0884 8.94152 21.0889 7.83643H20.2062C20.3205 8.44724 20.5575 9.0285 20.903 9.54501C21.2485 10.0615 21.6952 10.5025 22.2161 10.8413ZM14.0644 17.3303C13.3301 17.3312 12.6262 17.6232 12.107 18.1424C11.5878 18.6616 11.2958 19.3655 11.2949 20.0998C11.2954 20.6049 11.4339 21.1002 11.6955 21.5323C11.9571 21.9644 12.3318 22.3167 12.7791 22.5514C12.4385 22.0817 12.2551 21.5164 12.2551 20.9362C12.2558 20.2019 12.5478 19.4979 13.067 18.9786C13.5862 18.4593 14.2902 18.1671 15.0245 18.1663C15.3099 18.1663 15.5834 18.2135 15.8417 18.2946V14.931C15.571 14.8926 15.2979 14.8727 15.0245 14.8714C14.9764 14.8714 14.9292 14.8742 14.8816 14.8751V17.4586C14.6173 17.3745 14.3417 17.3312 14.0644 17.3303Z" fill="#FF004F"/>
<path fill-rule="evenodd" clip-rule="evenodd" d="M24.7125 12.3174V14.878C23.0039 14.878 21.4213 14.3315 20.1286 13.4039V20.0995C20.1286 23.4433 17.4086 26.1638 14.0647 26.1638C12.7725 26.1638 11.5742 25.7561 10.5894 25.0645C11.1556 25.6751 11.8418 26.1621 12.605 26.4952C13.3683 26.8282 14.1921 27 15.0248 26.9998C18.3687 26.9998 21.0892 24.2793 21.0892 20.9359V14.2403C22.4246 15.2006 24.0282 15.7163 25.673 15.7144V12.4191C25.3432 12.4191 25.0226 12.3833 24.7125 12.3169" fill="#FF004F"/>
<path fill-rule="evenodd" clip-rule="evenodd" d="M20.1286 20.0998V13.4042C21.4639 14.3646 23.0677 14.8803 24.7125 14.8783V12.3177C23.7427 12.1085 22.8669 11.5905 22.2165 10.8413C21.6956 10.5025 21.2488 10.0615 20.9033 9.54501C20.5579 9.0285 20.3208 8.44724 20.2065 7.83643H17.7943L17.7893 21.0402C17.7338 22.5188 16.5167 23.7057 15.0248 23.7057C14.5859 23.7053 14.1533 23.6003 13.7629 23.3996C13.3726 23.1989 13.0356 22.9081 12.7799 22.5514C12.3325 22.3168 11.9577 21.9645 11.696 21.5324C11.4343 21.1003 11.2958 20.6049 11.2953 20.0998C11.2961 19.3655 11.5881 18.6616 12.1073 18.1424C12.6265 17.6232 13.3305 17.3312 14.0647 17.3303C14.3497 17.3303 14.6231 17.3771 14.8819 17.4586V14.8751C11.604 14.952 8.96094 17.64 8.96094 20.9362C8.96094 22.5303 9.58025 23.9815 10.5894 25.0652C11.6067 25.7814 12.8206 26.1652 14.0647 26.1641C17.4086 26.1641 20.1286 23.4437 20.1286 20.0998Z" fill="white"/>
</g>
<defs>
<clipPath id="clip0_1953_35814">
<rect width="34" height="34" fill="white"/>
</clipPath>
</defs>
</svg>
