<svg width="34" height="34" viewBox="0 0 34 34" fill="none" xmlns="http://www.w3.org/2000/svg">
<g clip-path="url(#clip0_1949_55244)">
<path d="M17 0C26.3888 0 34 7.61118 34 17C34 26.3888 26.3888 34 17 34C7.61118 34 0 26.3888 0 17C0 7.61118 7.61118 0 17 0Z" fill="#7F4DA0"/>
<path d="M21.529 14.8457C21.4463 14.174 21.2398 13.6466 20.8732 13.1793C20.3971 12.5778 19.7887 12.2176 18.8879 12.0039C18.3008 11.8614 18.0637 11.8778 17.8514 12.0717C17.6536 12.2534 17.615 12.6176 17.7661 12.8536C17.8724 13.0248 17.995 13.0861 18.336 13.153C18.7901 13.2366 19.104 13.345 19.3895 13.5082C19.9954 13.8581 20.2776 14.4056 20.3078 15.292C20.3219 15.7082 20.3579 15.8361 20.5033 15.9837C20.7726 16.2535 21.2521 16.2011 21.4555 15.8782C21.5301 15.7565 21.5415 15.7035 21.5494 15.4209C21.5546 15.246 21.5471 14.9855 21.529 14.8457Z" fill="white"/>
<path d="M23.9025 15.6029C23.7829 13.5449 22.978 11.8891 21.5374 10.7242C20.7257 10.0696 19.7446 9.61949 18.6692 9.40062C18.2752 9.32228 17.5499 9.25888 17.4255 9.29515C17.308 9.32879 17.142 9.45587 17.068 9.5709C16.9896 9.69557 16.972 9.97394 17.0388 10.1349C17.1466 10.4041 17.3471 10.4992 17.9086 10.5484C18.7743 10.6241 19.6671 10.9282 20.3418 11.3785C21.1119 11.8911 21.7242 12.5923 22.1202 13.4162C22.4625 14.1242 22.673 15.1444 22.6671 16.058C22.6652 16.3884 22.7162 16.575 22.849 16.7115C23.0496 16.9212 23.342 16.9671 23.6001 16.8278C23.886 16.6774 23.9529 16.4134 23.9025 15.6029Z" fill="white"/>
<path d="M26.5286 23.5283C26.4884 23.4107 26.3945 23.2293 26.3274 23.1251C25.9046 22.4866 23.6332 20.7091 22.4991 20.1277C21.8516 19.7951 21.3718 19.6843 21.0162 19.7883C20.6337 19.8959 20.4324 20.074 19.7915 20.8704C19.5332 21.1896 19.2681 21.4887 19.1977 21.5357C19.0232 21.6567 18.6809 21.7541 18.4394 21.7541C17.8791 21.7507 16.8625 21.3879 16.0807 20.9107C15.4735 20.5411 14.6951 19.8791 14.0978 19.2238C13.3932 18.4544 12.9135 17.7756 12.5343 17.0094C12.0445 16.0249 11.9203 15.4234 12.125 14.9832C12.1753 14.8723 12.2425 14.7548 12.2726 14.7178C12.3028 14.6842 12.6182 14.4254 12.9671 14.1432C13.6516 13.5988 13.7623 13.4745 13.8898 13.1015C14.0508 12.6277 14.0073 12.1438 13.7589 11.6566C13.5677 11.287 13.0678 10.4805 12.7054 9.95969C12.2257 9.27423 11.0312 7.80919 10.7929 7.61086C10.3635 7.26143 9.81332 7.20094 9.20599 7.43618C8.56523 7.68481 7.36404 8.6526 6.85068 9.328C6.38767 9.93957 6.2099 10.373 6.18303 10.9442C6.15956 11.4147 6.19981 11.6095 6.44809 12.2111C8.3907 16.9288 11.2896 20.6956 15.2722 23.6863C17.3523 25.2487 19.5097 26.4383 21.7476 27.2515C23.0527 27.7253 23.6197 27.7488 24.2874 27.359C24.5692 27.191 25.2671 26.4753 25.6563 25.9544C26.3005 25.0874 26.5388 24.6876 26.6058 24.3684C26.6528 24.1499 26.6159 23.7703 26.5286 23.5283Z" fill="white"/>
<path d="M26.3184 16.0756C26.2754 14.9115 26.0794 13.9567 25.6707 12.8921C25.2673 11.845 24.8589 11.1616 24.0877 10.2373C23.3586 9.37075 22.7922 8.87591 21.894 8.32518C20.6409 7.55777 19.1159 7.04991 17.4068 6.83633C16.824 6.76169 16.6921 6.76702 16.5133 6.88634C16.1668 7.11237 16.1714 7.67606 16.519 7.89869C16.6341 7.96953 16.7362 7.99538 17.2024 8.05637C17.9181 8.1527 18.3783 8.24351 18.9244 8.39254C21.0656 8.97784 22.7123 10.1744 23.8132 11.9505C24.7345 13.4308 25.1169 14.9114 25.0626 16.8023C25.0437 17.4415 25.0575 17.554 25.1551 17.7076C25.3423 17.9939 25.8358 18.0505 26.0889 17.813C26.2465 17.6682 26.2761 17.5595 26.3072 17.0124C26.322 16.7269 26.3252 16.3056 26.3184 16.0756Z" fill="white"/>
</g>
<defs>
<clipPath id="clip0_1949_55244">
<rect width="34" height="34" fill="white"/>
</clipPath>
</defs>
</svg>
