<svg width="34" height="34" viewBox="0 0 34 34" fill="none" xmlns="http://www.w3.org/2000/svg">
<g clip-path="url(#clip0_1949_55256)">
<path d="M17 34C26.3888 34 34 26.3888 34 17C34 7.61118 26.3888 0 17 0C7.61118 0 0 7.61118 0 17C0 26.3888 7.61118 34 17 34Z" fill="#25D366"/>
<path fill-rule="evenodd" clip-rule="evenodd" d="M17.5604 26.4581H17.5562C15.8644 26.4575 14.202 26.033 12.7255 25.2276L7.3667 26.6334L8.80079 21.3951C7.91615 19.8621 7.45071 18.1231 7.45142 16.3415C7.45368 10.7679 11.9884 6.2334 17.5603 6.2334C20.2645 6.23457 22.8026 7.28734 24.7111 9.19806C26.6196 11.1087 27.6701 13.6485 27.669 16.3495C27.6668 21.9218 23.1338 26.4558 17.5604 26.4581ZM12.9738 23.3977L13.2806 23.5797C14.5706 24.3453 16.0493 24.7503 17.557 24.7509H17.5604C22.1913 24.7509 25.9604 20.9817 25.9622 16.3489C25.9631 14.1038 25.0901 11.9929 23.5037 10.4048C21.9174 8.81663 19.8079 7.94155 17.5637 7.94077C12.9292 7.94077 9.16006 11.7096 9.15822 16.3421C9.15758 17.9297 9.60177 19.4758 10.4428 20.8135L10.6426 21.1314L9.7938 24.2318L12.9738 23.3977ZM22.3071 18.5258C22.4833 18.611 22.6023 18.6685 22.6531 18.7533C22.7162 18.8586 22.7162 19.3643 22.5058 19.9544C22.2952 20.5444 21.2862 21.0829 20.8009 21.1554C20.3658 21.2205 19.815 21.2476 19.21 21.0553C18.8431 20.9389 18.3727 20.7835 17.7701 20.5233C15.4022 19.5008 13.8019 17.2058 13.4995 16.772C13.4783 16.7416 13.4635 16.7204 13.4552 16.7093L13.4532 16.7066C13.3195 16.5283 12.4238 15.3332 12.4238 14.0965C12.4238 12.933 12.9953 12.3232 13.2584 12.0424C13.2765 12.0233 13.293 12.0055 13.3078 11.9893C13.5394 11.7364 13.813 11.6732 13.9814 11.6732C14.1498 11.6732 14.3184 11.6748 14.4655 11.6822C14.4837 11.6831 14.5026 11.683 14.5221 11.6828C14.6693 11.682 14.8528 11.6809 15.0338 12.1158C15.1035 12.2831 15.2054 12.5312 15.3129 12.7929C15.5302 13.322 15.7704 13.9066 15.8126 13.9912C15.8758 14.1177 15.9178 14.2651 15.8336 14.4337C15.821 14.459 15.8093 14.4829 15.7981 14.5057C15.7349 14.6348 15.6884 14.7297 15.581 14.8551C15.5389 14.9043 15.4952 14.9575 15.4516 15.0106C15.3647 15.1164 15.2779 15.2222 15.2022 15.2976C15.0757 15.4235 14.9441 15.5602 15.0914 15.813C15.2388 16.0659 15.7457 16.893 16.4965 17.5628C17.3038 18.2828 18.0053 18.5871 18.3609 18.7413C18.4303 18.7715 18.4865 18.7958 18.5278 18.8165C18.7803 18.943 18.9276 18.9218 19.075 18.7533C19.2224 18.5847 19.7064 18.0157 19.8747 17.7629C20.0431 17.5101 20.2115 17.5522 20.443 17.6364C20.6747 17.7209 21.9164 18.3318 22.169 18.4582C22.2183 18.4829 22.2644 18.5052 22.3071 18.5258Z" fill="#FDFDFD"/>
</g>
<defs>
<clipPath id="clip0_1949_55256">
<rect width="34" height="34" fill="white"/>
</clipPath>
</defs>
</svg>
