<svg width="34" height="34" viewBox="0 0 34 34" fill="none" xmlns="http://www.w3.org/2000/svg">
<g clip-path="url(#clip0_1949_55259)">
<path d="M0 17C0 7.61118 7.61118 0 17 0C26.3888 0 34 7.61118 34 17C34 26.3888 26.3888 34 17 34C7.61118 34 0 26.3888 0 17Z" fill="#FF0000"/>
<path d="M25.6875 12.8018C25.4789 12.0007 24.8645 11.3698 24.0842 11.1557C22.6703 10.7666 16.9998 10.7666 16.9998 10.7666C16.9998 10.7666 11.3293 10.7666 9.91523 11.1557C9.13493 11.3698 8.52046 12.0007 8.31192 12.8018C7.93311 14.2538 7.93311 17.2833 7.93311 17.2833C7.93311 17.2833 7.93311 20.3127 8.31192 21.7648C8.52046 22.5659 9.13493 23.1967 9.91523 23.4109C11.3293 23.7999 16.9998 23.7999 16.9998 23.7999C16.9998 23.7999 22.6703 23.7999 24.0842 23.4109C24.8645 23.1967 25.4789 22.5659 25.6875 21.7648C26.0664 20.3127 26.0664 17.2833 26.0664 17.2833C26.0664 17.2833 26.0664 14.2538 25.6875 12.8018Z" fill="white"/>
<path d="M15.2998 20.4001V14.7334L19.8331 17.5668L15.2998 20.4001Z" fill="#FF0000"/>
</g>
<defs>
<clipPath id="clip0_1949_55259">
<rect width="34" height="34" fill="white"/>
</clipPath>
</defs>
</svg>
